<svg version="1.1" viewBox="0 0 36 36" xmlns="http://www.w3.org/2000/svg"><path d="M35 36v-5c0-3.314-2.686-6-6-6H13c-3.313 0-6 2.686-6 6v5h28z" fill="#FA743E"/><path d="M16.64 25.106c0 .894 2.36 1.993 4.36 1.993s4.359-1.099 4.359-1.992V21.29h-8.72v3.816z" fill="#FFDC5D"/><path d="m16.63 23.12c1.216 1.374 2.724 1.746 4.364 1.746 1.639 0 3.146-0.373 4.363-1.746v-3.491h-8.728v3.491z" fill="#F9CA55"/><path d="M24.731.531c-1.925-.623-6.455-.453-7.588 1.019-2.944.057-6.398 2.718-6.851 6.228-.448 3.475.551 5.088.906 7.701.403 2.96 2.067 3.907 3.397 4.303 1.914 2.529 3.949 2.421 7.366 2.421 6.672 0 9.85-4.464 10.131-12.047.17-4.585-2.521-8.059-7.361-9.625z" fill="#FFAC33"/><path d="M28.547 10.481c-.646-.894-1.472-1.614-3.284-1.868.68.311 1.331 1.387 1.416 1.982.085.595.17 1.076-.368.481-2.155-2.382-4.502-1.444-6.827-2.899-1.624-1.016-2.119-2.141-2.119-2.141s-.198 1.5-2.661 3.029c-.714.443-1.566 1.43-2.038 2.888-.34 1.048-.234 1.982-.234 3.578 0 4.66 3.841 8.578 8.578 8.578s8.578-3.953 8.578-8.578c-.002-2.898-.305-4.031-1.041-5.05z" fill="#FFDC5D"/><path d="M33 35c0 .553-.447 1-1 1H22c-.553 0-1-.447-1-1 0-.553.447-1 1-1h10c.553 0 1 .447 1 1z" fill="#E1E8ED"/><path d="m20.24 22h-16.48c-1.524 0-3.478 0.771-2.478 3.531l3.072 8.475c1e-3 0 0.397 1.994 2.647 1.994h20l-4-11.24c-0.438-1.322-1.235-2.76-2.76-2.76z" fill="#e1e8ed"/><path d="M19.24 22H2.759c-1.524 0-3.478.771-2.478 3.531l3.072 8.475C3.354 34.006 3.75 36 6 36h20l-4-11.24c-.438-1.322-1.235-2.76-2.76-2.76z" fill="#99AAB5"/><path d="m14.02 29.28c0.524 1.572 0.099 3.13-0.949 3.479-1.048 0.35-2.322-0.641-2.846-2.213s-0.099-3.13 0.949-3.479 2.323 0.641 2.846 2.213zm4.981-4.533h-16c-0.414 0-0.75-0.336-0.75-0.75s0.336-0.75 0.75-0.75h16c0.414 0 0.75 0.336 0.75 0.75s-0.336 0.75-0.75 0.75z" fill="#e1e8ed"/><g transform="matrix(1.04 0 0 1.04 13.18 -5.915)" stroke-width=".477"><circle cx="12.77" cy="22.36" r="2.385" fill="#ff7892"/><circle cx="2.281" cy="22.36" r="2.385" fill="#ff7892"/><path d="m12.77 18.55c-0.1221 0-0.2442-0.04675-0.3372-0.1398-1.229-1.228-3.365-0.8281-3.386-0.8233-0.2614 0.05199-0.509-0.1178-0.56-0.3754-0.05104-0.2581 0.1154-0.5085 0.3735-0.56 0.1083-0.02194 2.654-0.508 4.247 1.084 0.1865 0.1865 0.1865 0.488 0 0.6745-0.09254 0.09302-0.2146 0.1398-0.3368 0.1398zm-10.49 0c-0.1221 0-0.2442-0.04675-0.3372-0.1398-0.1865-0.1865-0.1865-0.488 0-0.6745 1.593-1.594 4.139-1.106 4.247-1.084 0.2585 0.05152 0.426 0.3029 0.374 0.5614-0.05152 0.2576-0.3019 0.4255-0.5605 0.3744-0.03291-0.0072-2.16-0.4021-3.386 0.8233-0.09302 0.09254-0.2151 0.1393-0.3372 0.1393zm9.063 2.385c-0.1221 0-0.2442-0.04675-0.3372-0.1398-0.622-0.6225-1.951-0.4646-2.41-0.3511-0.2576 0.06296-0.5137-0.09301-0.5776-0.3482-0.06344-0.2557 0.09158-0.5137 0.3473-0.5776 0.08872-0.02194 2.182-0.5299 3.315 0.6025 0.1865 0.1865 0.1865 0.488 0 0.6745-0.09301 0.09301-0.2151 0.1398-0.3372 0.1398zm-7.632 0c-0.1221 0-0.2442-0.04675-0.3372-0.1398-0.1865-0.1865-0.1865-0.488 0-0.6745 1.132-1.132 3.226-0.6244 3.315-0.6025 0.2552 0.06392 0.4102 0.322 0.3468 0.5776-0.06296 0.2557-0.321 0.4117-0.5772 0.3482-0.4598-0.113-1.788-0.2705-2.41 0.3511-0.09349 0.09301-0.2156 0.1398-0.3377 0.1398z" fill="#664500"/><path d="m7.528 25.94c-2.07 0-2.611-2.068-2.616-2.089-0.02624-0.104 0.02051-0.2123 0.1135-0.2657 0.09111-0.05056 0.2051-0.03768 0.2819 0.03434 0.0186 0.01622 0.5085 0.4121 2.221 0.4121 1.738 0 2.217-0.4078 2.221-0.4117 0.0787-0.06964 0.1951-0.08157 0.2848-0.02862 0.08968 0.0539 0.1355 0.1579 0.1102 0.2595-0.0052 0.02099-0.5462 2.089-2.616 2.089zm-2.385-2.146h0.00477z" fill="#664500"/></g><g transform="matrix(.7089 0 .1637 1 14.17 -3.246)" fill="#99aab5" stroke-width=".162"><circle cx="-8.766" cy="33.81" r=".81"/><circle cx="-12.33" cy="33.81" r=".81"/><path d="m-8.766 32.51c-0.04147 0-0.08294-0.01588-0.1145-0.04747-0.4175-0.4172-1.143-0.2812-1.15-0.2796-0.08878 0.01766-0.1729-0.04001-0.1902-0.1275-0.01733-0.08764 0.0392-0.1727 0.1268-0.1902 0.03677-0.0075 0.9012-0.1725 1.442 0.3682 0.06334 0.06334 0.06334 0.1657 0 0.2291-0.03143 0.03159-0.0729 0.04747-0.1144 0.04747zm-3.564 0c-0.04147 0-0.08294-0.01588-0.1145-0.04747-0.06334-0.06334-0.06334-0.1657 0-0.2291 0.5411-0.5412 1.406-0.3755 1.442-0.3682 0.0878 0.0175 0.1447 0.1029 0.127 0.1907-0.0175 0.08748-0.1025 0.1445-0.1904 0.1272-0.01118-0.0024-0.7337-0.1366-1.15 0.2796-0.03159 0.03143-0.07306 0.0473-0.1145 0.0473zm3.078 0.81c-0.04147 0-0.08294-0.01588-0.1145-0.04747-0.2112-0.2114-0.6626-0.1578-0.8184-0.1192-0.08748 0.02138-0.1745-0.03159-0.1962-0.1183-0.02155-0.08683 0.0311-0.1745 0.1179-0.1962 0.03013-0.0075 0.7411-0.18 1.126 0.2046 0.06334 0.06334 0.06334 0.1657 0 0.2291-0.03159 0.03159-0.07306 0.04747-0.1145 0.04747zm-2.592 0c-0.04147 0-0.08294-0.01588-0.1145-0.04747-0.06334-0.06334-0.06334-0.1657 0-0.2291 0.3844-0.3844 1.096-0.2121 1.126-0.2046 0.08667 0.02171 0.1393 0.1094 0.1178 0.1962-0.02138 0.08683-0.109 0.1398-0.196 0.1183-0.1562-0.03839-0.6073-0.09185-0.8184 0.1192-0.03175 0.03159-0.07322 0.04747-0.1147 0.04747z"/><path d="m-10.55 35.02c-0.7031 0-0.8868-0.7023-0.8886-0.7094-0.0089-0.03532 7e-3 -0.07209 0.03856-0.09023 0.03094-0.01717 0.06966-0.0128 0.09574 0.01166 0.0063 0.0055 0.1727 0.14 0.7543 0.14 0.5903 0 0.7528-0.1385 0.7544-0.1398 0.02673-0.02365 0.06626-0.0277 0.09671-0.0097 0.03046 0.01831 0.04601 0.05362 0.03742 0.08813-0.0018 0.0071-0.1855 0.7094-0.8886 0.7094zm-0.81-0.729h0.0016z"/></g></svg>
