<?xml version="1.0" encoding="UTF-8" standalone="no"?>
<svg
   viewBox="0 0 36 36"
   version="1.1"
   id="svg156"
   sodipodi:docname="relaxed-technologist.svg"
   inkscape:version="1.2.1 (9c6d41e410, 2022-07-14, custom)"
   inkscape:export-filename="relaxed-technologist.png"
   inkscape:export-xdpi="4266.6665"
   inkscape:export-ydpi="4266.6665"
   xmlns:inkscape="http://www.inkscape.org/namespaces/inkscape"
   xmlns:sodipodi="http://sodipodi.sourceforge.net/DTD/sodipodi-0.dtd"
   xmlns="http://www.w3.org/2000/svg"
   xmlns:svg="http://www.w3.org/2000/svg">
  <defs
     id="defs160" />
  <sodipodi:namedview
     id="namedview158"
     pagecolor="#505050"
     bordercolor="#ffffff"
     borderopacity="1"
     inkscape:showpageshadow="0"
     inkscape:pageopacity="0"
     inkscape:pagecheckerboard="1"
     inkscape:deskcolor="#505050"
     showgrid="false"
     inkscape:zoom="32.000001"
     inkscape:cx="8.7031247"
     inkscape:cy="28.609374"
     inkscape:window-width="1280"
     inkscape:window-height="663"
     inkscape:window-x="0"
     inkscape:window-y="0"
     inkscape:window-maximized="1"
     inkscape:current-layer="svg156" />
  <path
     fill="#FA743E"
     d="M35 36v-5c0-3.314-2.686-6-6-6H13c-3.313 0-6 2.686-6 6v5h28z"
     id="path132" />
  <path
     fill="#FFDC5D"
     d="M16.64 25.106c0 .894 2.36 1.993 4.36 1.993s4.359-1.099 4.359-1.992V21.29h-8.72v3.816z"
     id="path134" />
  <path
     fill="#F9CA55"
     d="M16.632 23.121c1.216 1.374 2.724 1.746 4.364 1.746 1.639 0 3.146-.373 4.363-1.746V19.63h-8.728v3.491z"
     id="path136" />
  <path
     fill="#FFAC33"
     d="M24.731.531c-1.925-.623-6.455-.453-7.588 1.019-2.944.057-6.398 2.718-6.851 6.228-.448 3.475.551 5.088.906 7.701.403 2.96 2.067 3.907 3.397 4.303 1.914 2.529 3.949 2.421 7.366 2.421 6.672 0 9.85-4.464 10.131-12.047.17-4.585-2.521-8.059-7.361-9.625z"
     id="path138" />
  <path
     fill="#FFDC5D"
     d="M28.547 10.481c-.646-.894-1.472-1.614-3.284-1.868.68.311 1.331 1.387 1.416 1.982.085.595.17 1.076-.368.481-2.155-2.382-4.502-1.444-6.827-2.899-1.624-1.016-2.119-2.141-2.119-2.141s-.198 1.5-2.661 3.029c-.714.443-1.566 1.43-2.038 2.888-.34 1.048-.234 1.982-.234 3.578 0 4.66 3.841 8.578 8.578 8.578s8.578-3.953 8.578-8.578c-.002-2.898-.305-4.031-1.041-5.05z"
     id="path140" />
  <path
     fill="#E1E8ED"
     d="M33 35c0 .553-.447 1-1 1H22c-.553 0-1-.447-1-1 0-.553.447-1 1-1h10c.553 0 1 .447 1 1z"
     id="path148" />
  <path
     fill="#e1e8ed"
     d="M 20.24,22 H 3.759 c -1.524,0 -3.478,0.771 -2.478,3.531 l 3.072,8.475 C 4.354,34.006 4.75,36 7,36 H 27 L 23,24.76 C 22.562,23.438 21.765,22 20.24,22 Z"
     id="path150"
     style="display:inline" />
  <path
     fill="#99AAB5"
     d="M19.24 22H2.759c-1.524 0-3.478.771-2.478 3.531l3.072 8.475C3.354 34.006 3.75 36 6 36h20l-4-11.24c-.438-1.322-1.235-2.76-2.76-2.76z"
     id="path152" />
  <path
     fill="#e1e8ed"
     d="m 14.019,29.283 c 0.524,1.572 0.099,3.13 -0.949,3.479 -1.048,0.35 -2.322,-0.641 -2.846,-2.213 -0.524,-1.572 -0.099,-3.13 0.949,-3.479 1.048,-0.349 2.323,0.641 2.846,2.213 z M 19,24.75 H 3 C 2.586,24.75 2.25,24.414 2.25,24 2.25,23.586 2.586,23.25 3,23.25 h 16 c 0.414,0 0.75,0.336 0.75,0.75 0,0.414 -0.336,0.75 -0.75,0.75 z"
     id="path154"
     style="display:inline"
     sodipodi:nodetypes="ccsscsssssss" />
  <g
     id="g868"
     transform="matrix(1.0395,0,0,1.0395,13.176854,-5.9146656)"
     style="display:inline">
    <circle
       fill="#ff7892"
       cx="12.774798"
       cy="22.36182"
       id="circle153"
       r="2.385"
       style="stroke-width:0.477" />
    <circle
       fill="#ff7892"
       cx="2.2807982"
       cy="22.36182"
       id="circle155"
       r="2.385"
       style="stroke-width:0.477" />
    <path
       fill="#664500"
       d="m 12.774798,18.54582 c -0.122112,0 -0.244224,-0.04675 -0.337239,-0.139761 -1.229229,-1.228275 -3.3652347,-0.828072 -3.3862227,-0.823302 -0.261396,0.05199 -0.508959,-0.117819 -0.559998,-0.375399 -0.051039,-0.258057 0.115434,-0.508482 0.373491,-0.559998 0.108279,-0.02194 2.6535507,-0.508005 4.2467307,1.084221 0.186507,0.186507 0.186507,0.487971 0,0.674478 -0.09254,0.09302 -0.21465,0.139761 -0.336762,0.139761 z m -10.4939997,0 c -0.122112,0 -0.244224,-0.04675 -0.337239,-0.139761 -0.186507,-0.186507 -0.186507,-0.487971 0,-0.674478 1.59318,-1.593657 4.139406,-1.105686 4.246731,-1.084221 0.258534,0.05152 0.425961,0.302895 0.373968,0.561429 -0.051516,0.25758 -0.301941,0.425484 -0.560475,0.374445 -0.032913,-0.0072 -2.160333,-0.402111 -3.385746,0.823302 -0.093015,0.09254 -0.215127,0.139284 -0.337239,0.139284 z m 9.0629997,2.385 c -0.122112,0 -0.244224,-0.04675 -0.337239,-0.139761 -0.622008,-0.622485 -1.9509297,-0.464598 -2.4098037,-0.351072 -0.25758,0.06296 -0.513729,-0.09301 -0.577647,-0.34821 -0.063441,-0.255672 0.091584,-0.513729 0.347256,-0.577647 0.088722,-0.02194 2.1822747,-0.529947 3.3146727,0.602451 0.186507,0.186507 0.186507,0.487971 0,0.674478 -0.09301,0.09301 -0.215127,0.139761 -0.337239,0.139761 z m -7.6319997,0 c -0.122112,0 -0.244224,-0.04675 -0.337239,-0.139761 -0.186507,-0.186507 -0.186507,-0.487971 0,-0.674478 1.131921,-1.131921 3.226428,-0.624393 3.31515,-0.602451 0.255195,0.06392 0.41022,0.321975 0.346779,0.577647 -0.062964,0.255672 -0.321021,0.411651 -0.57717,0.34821 -0.459828,-0.113049 -1.788273,-0.270459 -2.409804,0.351072 -0.093492,0.09301 -0.215604,0.139761 -0.337716,0.139761 z"
       id="path157"
       style="stroke-width:0.477" />
    <path
       d="m 7.5277983,25.93932 c -2.07018,0 -2.611098,-2.067795 -2.616345,-2.088783 -0.026235,-0.103986 0.020511,-0.212265 0.113526,-0.265689 0.091107,-0.05056 0.20511,-0.03768 0.281907,0.03434 0.018603,0.01622 0.508482,0.412132 2.220912,0.412132 1.738188,0 2.216619,-0.407835 2.221389,-0.411651 0.0787,-0.06964 0.195093,-0.08157 0.2847687,-0.02862 0.08968,0.0539 0.135468,0.157887 0.110187,0.259488 -0.0052,0.02099 -0.5461647,2.088783 -2.6163447,2.088783 z m -2.385,-2.1465 h 0.00477 z"
       id="path161"
       sodipodi:nodetypes="scccscccsccc"
       style="fill:#664500;stroke-width:0.477" />
  </g>
  <g
     id="g1844"
     transform="matrix(0.70890386,0,0.16366335,1,14.172115,-3.245793)"
     style="fill:none;fill-opacity:1">
    <circle
       fill="#99aab5"
       cx="-8.7659645"
       cy="33.809792"
       r="0.81"
       id="circle153-5"
       style="stroke-width:0.162;fill-opacity:1" />
    <circle
       fill="#99aab5"
       cx="-12.329965"
       cy="33.809792"
       r="0.81"
       id="circle155-6"
       style="stroke-width:0.162;fill-opacity:1" />
    <path
       fill="#99aab5"
       d="m -8.7659642,32.513793 c -0.04147,0 -0.08294,-0.01588 -0.114534,-0.04747 -0.417474,-0.41715 -1.1429098,-0.281232 -1.1500378,-0.279612 -0.08878,0.01766 -0.172854,-0.04001 -0.190188,-0.127494 -0.01733,-0.08764 0.0392,-0.172692 0.126846,-0.190188 0.03677,-0.0075 0.9012058,-0.17253 1.4422858,0.368226 0.06334,0.06334 0.06334,0.165726 0,0.229068 -0.03143,0.03159 -0.0729,0.04747 -0.114372,0.04747 z m -3.5639998,0 c -0.04147,0 -0.08294,-0.01588 -0.114534,-0.04747 -0.06334,-0.06334 -0.06334,-0.165726 0,-0.229068 0.54108,-0.541242 1.405836,-0.375516 1.442286,-0.368226 0.0878,0.0175 0.144666,0.10287 0.127008,0.190674 -0.0175,0.08748 -0.102546,0.144504 -0.19035,0.12717 -0.01118,-0.0024 -0.733698,-0.136566 -1.149876,0.279612 -0.03159,0.03143 -0.07306,0.0473 -0.114534,0.0473 z m 3.0779998,0.81 c -0.04147,0 -0.08294,-0.01588 -0.114534,-0.04747 -0.211248,-0.21141 -0.6625798,-0.157788 -0.8184238,-0.119232 -0.08748,0.02138 -0.174474,-0.03159 -0.196182,-0.11826 -0.02155,-0.08683 0.0311,-0.174474 0.117936,-0.196182 0.03013,-0.0075 0.7411498,-0.179982 1.1257378,0.204606 0.06334,0.06334 0.06334,0.165726 0,0.229068 -0.03159,0.03159 -0.07306,0.04747 -0.114534,0.04747 z m -2.5919998,0 c -0.04147,0 -0.08294,-0.01588 -0.114534,-0.04747 -0.06334,-0.06334 -0.06334,-0.165726 0,-0.229068 0.384426,-0.384426 1.095768,-0.212058 1.1259,-0.204606 0.08667,0.02171 0.13932,0.10935 0.117774,0.196182 -0.02138,0.08683 -0.109026,0.139806 -0.19602,0.11826 -0.156168,-0.03839 -0.607338,-0.09185 -0.818424,0.119232 -0.03175,0.03159 -0.07322,0.04747 -0.114696,0.04747 z"
       id="path157-2"
       style="stroke-width:0.162;fill-opacity:1" />
    <path
       d="m -10.547964,35.024793 c -0.70308,0 -0.886788,-0.70227 -0.88857,-0.709398 -0.0089,-0.03532 0.007,-0.07209 0.03856,-0.09023 0.03094,-0.01717 0.06966,-0.0128 0.09574,0.01166 0.0063,0.0055 0.172692,0.139968 0.754272,0.139968 0.5903278,0 0.7528138,-0.13851 0.7544338,-0.139806 0.02673,-0.02365 0.06626,-0.0277 0.09671,-0.0097 0.03046,0.01831 0.04601,0.05362 0.03742,0.08813 -0.0018,0.0071 -0.18549,0.709398 -0.8885698,0.709398 z m -0.81,-0.729 h 0.0016 z"
       id="path161-9"
       sodipodi:nodetypes="scccscccsccc"
       style="stroke-width:0.162;fill-opacity:1;fill:#99aab5" />
  </g>
</svg>
